<svg width="178" height="174" viewBox="0 0 178 174" fill="none" xmlns="http://www.w3.org/2000/svg">
<path d="M171.472 95.7683C170.886 96.1524 170.545 96.7108 170.449 97.4435C170.354 98.1763 170.544 98.8039 171.02 99.3265C171.49 99.8316 172.17 100.142 173.06 100.258L173.158 100.271C174.015 100.383 174.739 100.259 175.33 99.9011C175.924 99.5181 176.271 98.9479 176.37 98.1905C176.468 97.4413 176.287 96.8065 175.827 96.286C175.373 95.7831 174.693 95.4725 173.787 95.3544L173.689 95.3415C172.791 95.2244 172.052 95.3667 171.472 95.7683ZM169.713 100.676C168.966 99.7244 168.682 98.5653 168.86 97.1987C169.039 95.832 169.61 94.7888 170.575 94.0689C171.506 93.3531 172.631 93.081 173.949 93.2529L174.047 93.2658C175.382 93.4397 176.404 94.0127 177.115 94.9845C177.843 95.9503 178.122 97.0877 177.951 98.3967C177.776 99.7386 177.226 100.776 176.301 101.51C175.342 102.247 174.212 102.531 172.911 102.361L172.812 102.348C171.486 102.175 170.453 101.618 169.713 100.676Z" fill="#838D95"/>
<path d="M166.399 109.109C166.669 108.167 167.163 107.48 167.883 107.046C168.634 106.596 169.508 106.513 170.507 106.799L170.603 106.826C171.585 107.107 172.293 107.65 172.728 108.456C173.132 109.219 173.201 110.064 172.936 110.99C172.706 111.796 172.339 112.4 171.836 112.8C171.256 113.256 170.532 113.403 169.662 113.241L170.131 111.6C170.872 111.7 171.348 111.378 171.56 110.636C171.693 110.173 171.634 109.759 171.384 109.394C171.132 109.037 170.711 108.774 170.12 108.605L170.024 108.578C169.401 108.4 168.888 108.396 168.485 108.565C168.088 108.746 167.82 109.079 167.681 109.566C167.576 109.933 167.593 110.266 167.732 110.565C167.869 110.872 168.127 111.101 168.507 111.253L168.059 112.822C167.298 112.552 166.776 112.097 166.493 111.455C166.179 110.769 166.148 109.987 166.399 109.109Z" fill="#838D95"/>
<path d="M167.035 122.882L167.788 121.105L162.969 119.066L163.668 117.414L168.487 119.453L169.24 117.675L170.421 118.175L168.217 123.382L167.035 122.882Z" fill="#838D95"/>
<path d="M158.735 127.139C159.241 126.261 159.9 125.707 160.714 125.476C161.555 125.213 162.419 125.336 163.304 125.845L163.391 125.895C164.269 126.401 164.82 127.091 165.044 127.967C165.261 128.821 165.132 129.661 164.655 130.489C164.203 131.273 163.608 131.783 162.868 132.018C162.045 132.282 161.155 132.139 160.198 131.588L159.766 131.339L162.11 127.27C161.622 127.019 161.181 126.937 160.785 127.025C160.392 127.125 160.071 127.39 159.822 127.822C159.433 128.499 159.47 129.042 159.933 129.452L159.081 130.931C158.523 130.485 158.214 129.933 158.152 129.275C158.093 128.628 158.288 127.916 158.735 127.139ZM161.604 130.371C162.475 130.805 163.132 130.637 163.576 129.867C163.779 129.515 163.835 129.159 163.744 128.8C163.657 128.453 163.428 128.135 163.058 127.845L161.604 130.371Z" fill="#838D95"/>
<path d="M160.063 137.459L158.962 138.89L158.152 138.268C158.305 138.627 158.356 139.017 158.305 139.438C158.254 139.871 158.09 140.268 157.811 140.63C157.31 141.281 156.673 141.64 155.899 141.705C155.091 141.775 154.269 141.488 153.433 140.845L153.354 140.784C152.525 140.146 152.034 139.429 151.883 138.631C151.73 137.864 151.909 137.148 152.42 136.483C152.714 136.102 153.055 135.829 153.442 135.666C153.836 135.508 154.218 135.462 154.588 135.526L152.04 133.567L153.142 132.135L160.063 137.459ZM153.863 136.917C153.559 137.312 153.454 137.713 153.549 138.121C153.65 138.534 153.954 138.936 154.461 139.326L154.54 139.386C155.053 139.781 155.528 139.968 155.963 139.947C156.399 139.926 156.761 139.728 157.05 139.353C157.349 138.964 157.452 138.551 157.359 138.113C157.268 137.687 156.969 137.279 156.462 136.889L156.383 136.828C155.876 136.439 155.405 136.254 154.97 136.275C154.541 136.302 154.172 136.516 153.863 136.917Z" fill="#838D95"/>
<path d="M145.674 144.047C146.393 143.333 147.176 142.972 148.022 142.964C148.903 142.932 149.703 143.279 150.423 144.004L150.493 144.074C151.207 144.793 151.556 145.605 151.541 146.509C151.525 147.39 151.179 148.166 150.501 148.839C149.858 149.476 149.149 149.811 148.374 149.843C147.51 149.881 146.689 149.508 145.911 148.724L145.56 148.37L148.894 145.063C148.491 144.692 148.086 144.497 147.681 144.477C147.276 144.47 146.896 144.642 146.543 144.993C145.988 145.542 145.881 146.076 146.219 146.594L145.008 147.796C144.587 147.219 144.434 146.605 144.548 145.953C144.662 145.314 145.037 144.678 145.674 144.047ZM147.588 147.92C148.314 148.569 148.992 148.58 149.623 147.955C149.912 147.668 150.06 147.34 150.068 146.97C150.075 146.612 149.938 146.244 149.658 145.868L147.588 147.92Z" fill="#838D95"/>
<path d="M142.128 154.319L138.906 150.198L140.31 149.101L144.322 154.234L140.797 156.987L140.007 155.976L142.128 154.319Z" fill="#838D95"/>
<path d="M131.796 155.033C132.335 154.706 132.852 154.573 133.345 154.633C133.891 154.7 134.332 155.011 134.668 155.564C135.042 156.182 135.053 156.807 134.698 157.44C134.379 158.002 133.765 158.559 132.855 159.11L132.227 159.491L132.363 159.715C132.578 160.07 132.803 160.288 133.037 160.369C133.264 160.455 133.547 160.395 133.888 160.188C134.435 159.856 134.592 159.402 134.358 158.825L135.818 157.94C136.154 158.591 136.188 159.231 135.919 159.86C135.671 160.428 135.188 160.929 134.471 161.364C133.753 161.799 133.098 161.983 132.503 161.916C131.863 161.838 131.324 161.437 130.884 160.713L128.681 157.081L130.184 156.171L130.591 156.842C130.648 156.088 131.05 155.485 131.796 155.033ZM131.99 156.387C131.642 156.597 131.408 156.861 131.289 157.176C131.169 157.491 131.202 157.801 131.387 158.107L131.671 158.575L132.268 158.213C132.737 157.929 133.055 157.654 133.223 157.387C133.385 157.124 133.379 156.851 133.207 156.567C132.935 156.119 132.53 156.059 131.99 156.387Z" fill="#838D95"/>
<path d="M123.56 168.387C123.743 167.954 124.093 167.625 124.611 167.399C125.128 167.173 125.604 167.142 126.038 167.306C126.476 167.477 126.825 167.809 127.085 168.303L125.898 168.821C125.653 168.384 125.367 168.237 125.039 168.38C124.682 168.536 124.576 168.854 124.722 169.334L123.557 169.843C123.373 169.316 123.374 168.831 123.56 168.387ZM124.364 159.366L126.972 165.335L125.339 166.048L123.599 162.065L123.033 167.055L121.4 167.767L118.793 161.798L120.425 161.085L122.165 165.069L122.732 160.079L124.364 159.366Z" fill="#838D95"/>
<path d="M110.724 169.912L112.577 169.368L111.101 164.349L112.822 163.843L114.298 168.862L116.151 168.317L116.512 169.548L111.086 171.143L110.724 169.912Z" fill="#838D95"/>
<path d="M102.17 166.191C103.17 166.026 104.017 166.185 104.712 166.667C105.448 167.152 105.9 167.897 106.067 168.905L106.083 169.003C106.248 170.003 106.063 170.866 105.527 171.595C105.004 172.304 104.272 172.736 103.329 172.892C102.436 173.04 101.664 172.902 101.013 172.479C100.287 172.01 99.8344 171.231 99.6542 170.142L99.5729 169.65L104.207 168.884C104.093 168.348 103.876 167.954 103.557 167.704C103.231 167.463 102.822 167.384 102.33 167.465C101.56 167.592 101.163 167.965 101.139 168.583L99.4551 168.862C99.4464 168.148 99.6772 167.559 100.148 167.094C100.611 166.638 101.285 166.338 102.17 166.191ZM101.487 170.457C101.703 171.406 102.249 171.808 103.126 171.663C103.528 171.597 103.838 171.415 104.059 171.118C104.272 170.83 104.374 170.451 104.363 169.982L101.487 170.457Z" fill="#838D95"/>
<path d="M91.8659 167.2C92.8454 167.167 93.6521 167.426 94.286 167.977C94.9457 168.553 95.2933 169.359 95.3289 170.397L95.3323 170.496C95.3673 171.517 95.0679 172.358 94.434 173.019C93.8319 173.638 93.0494 173.964 92.0865 173.997C91.2481 174.025 90.561 173.862 90.0252 173.507C89.4128 173.096 89.05 172.452 88.9368 171.575L90.6426 171.517C90.7759 172.251 91.2285 172.606 92.0005 172.579C92.4819 172.563 92.858 172.379 93.1285 172.03C93.3908 171.68 93.5114 171.198 93.4903 170.584L93.4869 170.485C93.4647 169.837 93.3108 169.348 93.0252 169.017C92.7316 168.695 92.3316 168.543 91.8253 168.56C91.4434 168.573 91.1317 168.692 90.89 168.916C90.6401 169.141 90.5014 169.457 90.4738 169.865L88.8427 169.921C88.8649 169.114 89.1381 168.478 89.6623 168.011C90.2182 167.502 90.9528 167.232 91.8659 167.2Z" fill="#838D95"/>
<path d="M83.8565 173.77L82.0824 173.607L82.2714 171.549L81.0928 171.44C80.3153 171.369 79.7211 171.119 79.3102 170.689C78.8992 170.259 78.7264 169.689 78.7917 168.978L78.7951 168.941C78.8604 168.23 79.1331 167.713 79.6131 167.39C80.0849 167.067 80.7302 166.942 81.5491 167.018L84.4522 167.284L83.8565 173.77ZM81.7814 168.302C81.0536 168.235 80.6615 168.508 80.6053 169.12L80.6019 169.157C80.5427 169.802 80.877 170.158 81.6049 170.224L82.3865 170.296L82.563 168.374L81.7814 168.302Z" fill="#838D95"/>
<path d="M62.6846 168.416L64.8738 169.096L66.4264 164.1L68.1278 164.629L66.1945 170.849L60.6025 169.112L62.5358 162.892L64.2372 163.42L62.6846 168.416Z" fill="#838D95"/>
<path d="M54.9275 161.079C54.4679 160.866 54.0404 160.86 53.6449 161.061C53.2418 161.258 52.9091 161.639 52.6468 162.204L52.6101 162.283C52.3478 162.848 52.2712 163.348 52.3805 163.783C52.4787 164.222 52.7575 164.548 53.2171 164.762C53.6691 164.971 54.0966 164.978 54.4997 164.78C54.8992 164.59 55.2301 164.213 55.4925 163.648L55.5344 163.558C55.8003 162.986 55.8823 162.484 55.7806 162.052C55.6789 161.62 55.3945 161.296 54.9275 161.079ZM55.5159 159.842C56.4199 160.262 57.0305 160.879 57.3477 161.694C57.6875 162.52 57.6458 163.389 57.2226 164.3L57.1806 164.391C56.7574 165.302 56.1153 165.905 55.2544 166.202C54.4154 166.49 53.544 166.424 52.64 166.004C51.7284 165.581 51.114 164.962 50.7968 164.146C50.475 163.301 50.5222 162.431 50.9385 161.535L50.9804 161.444C51.4037 160.533 52.0458 159.93 52.9067 159.633C53.7346 159.349 54.6043 159.419 55.5159 159.842Z" fill="#838D95"/>
<path d="M45.1062 157.695C45.5532 157.123 45.9489 156.731 46.2934 156.518L44.4181 155.312L42.2738 158.642L43.7404 159.586C44.3073 158.736 44.7626 158.106 45.1062 157.695ZM48.4834 154.521L49.7929 155.364L48.2419 157.772L47.9276 157.57C47.7036 157.534 47.472 157.603 47.2328 157.775C46.9892 157.954 46.6991 158.251 46.3625 158.666C45.8201 159.324 45.1533 160.268 44.3621 161.496L40.0983 158.753L42.9305 154.355L42.1553 153.856L43.7062 151.447L45.0158 152.29L44.1803 153.633L47.606 155.838L48.4834 154.521Z" fill="#838D95"/>
<path d="M35.8394 150.999C36.3604 150.494 36.8061 150.16 37.1764 149.996L35.484 148.544L32.904 151.55L34.2277 152.685C34.9056 151.921 35.4428 151.359 35.8394 150.999ZM39.6192 148.317L40.8011 149.331L38.9351 151.505L38.6514 151.261C38.4343 151.195 38.1956 151.231 37.9351 151.369C37.6693 151.513 37.3412 151.768 36.9509 152.133C36.3236 152.711 35.534 153.554 34.582 154.663L30.7338 151.362L34.1414 147.393L33.4417 146.793L35.3078 144.619L36.4896 145.633L35.4782 146.849L38.5699 149.501L39.6192 148.317Z" fill="#838D95"/>
<path d="M29.1653 140.289C29.8397 141.045 30.1585 141.846 30.1219 142.69C30.1067 143.572 29.7179 144.352 28.9553 145.032L28.881 145.098C28.1246 145.772 27.2953 146.077 26.393 146.014C25.5141 145.952 24.7569 145.565 24.1212 144.852C23.5187 144.176 23.222 143.451 23.2311 142.675C23.2395 141.811 23.6559 141.012 24.4804 140.277L24.8523 139.945L27.9783 143.45C28.3708 143.066 28.5875 142.673 28.6283 142.27C28.6573 141.866 28.506 141.478 28.1743 141.106C27.6547 140.523 27.1272 140.387 26.5917 140.698L25.4558 139.424C26.0546 139.035 26.6762 138.915 27.3207 139.063C27.9534 139.211 28.5683 139.62 29.1653 140.289ZM25.1938 141.994C24.5072 142.684 24.4596 143.36 25.0511 144.023C25.3219 144.327 25.6419 144.492 26.011 144.519C26.3683 144.545 26.7427 144.429 27.1341 144.169L25.1938 141.994Z" fill="#838D95"/>
<path d="M21.0015 134.483C21.8514 134.034 22.547 133.801 23.0882 133.784C23.6294 133.767 24.0778 134.019 24.4335 134.54C24.5599 134.725 24.6351 134.865 24.6591 134.959L24.7022 135.111L23.5185 135.918C23.5207 135.906 23.5158 135.884 23.504 135.852C23.4803 135.788 23.4474 135.725 23.4052 135.663C23.2742 135.471 23.0627 135.404 22.7707 135.463C22.4719 135.526 22.0752 135.696 21.5805 135.973C21.466 136.041 21.3172 136.132 21.1341 136.247C20.9464 136.355 20.7232 136.492 20.4646 136.658C20.1945 136.822 19.9816 136.952 19.826 137.048C19.3226 137.371 18.9268 137.631 18.6386 137.828L15.8095 133.681L21.1927 130.011L22.1965 131.483L17.8735 134.43L18.8212 135.819C19.757 135.201 20.4837 134.756 21.0015 134.483Z" fill="#838D95"/>
<path d="M15.208 125.719L17.9531 124.329L18.7639 125.929L12.9514 128.872L12.1406 127.273L14.6301 126.012L11.189 125.395L10.3219 123.684L14.0536 124.461L16.05 120.574L16.9734 122.396L15.208 125.719Z" fill="#838D95"/>
<path d="M14.3023 116.497L8.14965 118.641L7.56308 116.96L11.6688 115.529L6.73448 114.584L6.1479 112.903L12.3006 110.758L12.8871 112.44L8.78145 113.871L13.7157 114.815L14.3023 116.497Z" fill="#838D95"/>
<path d="M6.74885 96.9953C7.12012 97.2638 7.33836 97.6408 7.40355 98.1263C7.46875 98.6118 7.3577 99.033 7.07041 99.3898C6.79246 99.7539 6.42299 99.9668 5.96199 100.029C5.50923 100.089 5.09255 99.9819 4.71194 99.7063C4.34779 99.4285 4.13367 99.0509 4.06958 98.5736C4.00549 98.0964 4.11242 97.6757 4.39037 97.3117C4.67766 96.9549 5.05181 96.7455 5.5128 96.6836C5.98203 96.6207 6.39404 96.7245 6.74885 96.9953Z" fill="#838D95"/>
<path d="M6.61394 81.9334C7.18192 81.5229 7.49687 80.9495 7.5588 80.2131C7.62073 79.4768 7.40184 78.8585 6.90213 78.3583C6.4093 77.8752 5.71595 77.5962 4.82207 77.5211L4.72275 77.5127C3.86197 77.4404 3.1445 77.5967 2.57034 77.9817C1.99408 78.3915 1.67394 78.977 1.60993 79.7382C1.54661 80.4911 1.75653 81.1169 2.23968 81.6158C2.71596 82.0974 3.40931 82.3765 4.31975 82.453L4.41907 82.4613C5.32122 82.5372 6.05285 82.3612 6.61394 81.9334ZM8.14577 76.9505C8.93557 77.8668 9.27272 79.0116 9.15721 80.385C9.0417 81.7583 8.51842 82.8267 7.58736 83.59C6.69011 84.3477 5.57935 84.671 4.25509 84.5597L4.15577 84.5514C2.81495 84.4387 1.76723 83.9132 1.01263 82.9749C0.240775 82.0436 -0.0898321 80.9201 0.0208061 79.6046C0.134228 78.2561 0.636122 77.1943 1.52649 76.4192C2.45066 75.6387 3.5666 75.3034 4.87431 75.4133L4.97363 75.4217C6.30618 75.5336 7.36356 76.0433 8.14577 76.9505Z" fill="#838D95"/>
<path d="M11.0696 68.3741C10.8437 69.3275 10.3811 70.037 9.68179 70.5029C8.95247 70.9872 8.08266 71.1097 7.07238 70.8706L6.97539 70.8476C5.98127 70.6122 5.24866 70.1017 4.77755 69.3162C4.3392 68.5724 4.23105 67.732 4.45311 66.7948C4.64645 65.9788 4.98527 65.3594 5.46957 64.9365C6.02767 64.4543 6.74466 64.2743 7.62052 64.3963L7.22714 66.0566C6.48293 65.9913 6.02181 66.3343 5.84379 67.0857C5.73276 67.5543 5.81039 67.9651 6.07668 68.3183C6.34488 68.6634 6.77803 68.9067 7.37611 69.0483L7.4731 69.0712C8.10352 69.2205 8.616 69.201 9.01054 69.0129C9.39892 68.8147 9.65149 68.4693 9.76826 67.9764C9.85632 67.6048 9.82399 67.2729 9.67128 66.9808C9.52048 66.6806 9.25185 66.4634 8.86539 66.3292L9.24155 64.7417C10.014 64.9758 10.5563 65.4071 10.8683 66.0355C11.2131 66.7059 11.2802 67.4854 11.0696 68.3741Z" fill="#838D95"/>
<path d="M9.80323 54.6447L9.13279 56.4549L14.04 58.2709L13.4171 59.9527L8.50992 58.1368L7.83948 59.947L6.63604 59.5017L8.59979 54.1993L9.80323 54.6447Z" fill="#838D95"/>
<path d="M17.8991 50.0123C17.4343 50.9123 16.8008 51.4964 15.9986 51.7646C15.17 52.0658 14.3019 51.9822 13.3941 51.5137L13.3055 51.468C12.4051 51.0034 11.823 50.3386 11.5593 49.4737C11.3027 48.6311 11.3935 47.7857 11.8317 46.9373C12.247 46.1331 12.8186 45.5965 13.5464 45.3274C14.3565 45.0259 15.2523 45.1284 16.2338 45.635L16.6767 45.8635L14.522 50.0355C15.0206 50.2647 15.4656 50.3262 15.857 50.2198C16.2449 50.1023 16.5531 49.8222 16.7817 49.3796C17.1398 48.6861 17.0781 48.145 16.5965 47.7563L17.3795 46.2402C17.9573 46.6599 18.2921 47.197 18.3839 47.8518C18.4722 48.4953 18.3106 49.2155 17.8991 50.0123ZM14.8855 46.9154C13.9954 46.5214 13.3464 46.7192 12.9388 47.5085C12.7521 47.87 12.7121 48.2279 12.819 48.582C12.9223 48.925 13.1654 49.2326 13.5482 49.5049L14.8855 46.9154Z" fill="#838D95"/>
<path d="M16.0991 39.7638L17.134 38.2836L17.9713 38.8687C17.8017 38.5171 17.733 38.1298 17.7653 37.7067C17.7957 37.2721 17.9417 36.8676 18.2034 36.4933C18.6744 35.8196 19.2947 35.4325 20.0642 35.3319C20.8684 35.2252 21.7028 35.4739 22.5674 36.078L22.6491 36.135C23.5069 36.7343 24.0296 37.4288 24.2173 38.2183C24.4057 38.9779 24.2596 39.7014 23.779 40.3887C23.503 40.7834 23.1753 41.071 22.7957 41.2516C22.4094 41.4273 22.0301 41.4915 21.6578 41.4442L24.2925 43.2849L23.2576 44.765L16.0991 39.7638ZM22.3182 40.0215C22.6037 39.6132 22.6898 39.2074 22.5765 38.8041C22.4565 38.3961 22.1344 38.009 21.6101 37.6427L21.5285 37.5856C20.9974 37.2147 20.5149 37.0497 20.0808 37.0909C19.6467 37.132 19.294 37.3465 19.0228 37.7344C18.7421 38.1359 18.658 38.5532 18.7706 38.9864C18.8811 39.4081 19.1985 39.802 19.7227 40.1682L19.8044 40.2253C20.3286 40.5915 20.8078 40.7541 21.2419 40.713C21.6692 40.6671 22.0279 40.4366 22.3182 40.0215Z" fill="#838D95"/>
<path d="M30.1713 32.5239C29.4855 33.2695 28.7203 33.6659 27.8758 33.7131C26.9971 33.7853 26.1817 33.4758 25.4297 32.7846L25.3563 32.7171C24.6103 32.0316 24.2243 31.2369 24.1981 30.3331C24.1728 29.4527 24.4835 28.6611 25.1299 27.9582C25.7427 27.292 26.4356 26.9251 27.2087 26.8574C28.0696 26.7801 28.9066 27.1152 29.7198 27.8626L30.0867 28.1997L26.9077 31.656C27.3281 32.0086 27.7411 32.1852 28.1467 32.1858C28.5519 32.1746 28.9231 31.9857 29.2604 31.619C29.7888 31.0445 29.872 30.5063 29.51 30.0044L30.6652 28.7484C31.1119 29.3055 31.2931 29.9119 31.209 30.5677C31.1243 31.2117 30.7785 31.8638 30.1713 32.5239ZM28.0815 28.7422C27.3267 28.1275 26.6486 28.1472 26.0471 28.8012C25.7716 29.1006 25.6387 29.4353 25.6484 29.8051C25.6576 30.1631 25.8108 30.5239 26.1083 30.8875L28.0815 28.7422Z" fill="#838D95"/>
<path d="M33.243 22.0995L36.6506 26.069L35.2985 27.2288L31.0553 22.2857L34.4496 19.3742L35.2853 20.3477L33.243 22.0995Z" fill="#838D95"/>
<path d="M43.5315 20.9132C43.0073 21.2648 42.4975 21.4217 42.0021 21.3841C41.4537 21.3419 40.999 21.052 40.6381 20.5142C40.2354 19.9144 40.1967 19.2905 40.5219 18.6424C40.815 18.0659 41.403 17.4815 42.2859 16.8894L42.8963 16.48L42.7505 16.2628C42.5191 15.9181 42.2847 15.7104 42.0472 15.6397C41.8166 15.5644 41.5358 15.6378 41.2047 15.8598C40.6736 16.216 40.5379 16.677 40.7976 17.2427L39.3803 18.1934C39.0144 17.5589 38.9514 16.9212 39.1914 16.2803C39.4131 15.7017 39.8723 15.1787 40.5689 14.7115C41.2655 14.2443 41.9122 14.0305 42.509 14.0702C43.1518 14.1189 43.7093 14.4949 44.1813 15.1981L46.5485 18.7247L45.0897 19.7031L44.6524 19.0515C44.6293 19.8069 44.2557 20.4275 43.5315 20.9132ZM43.2752 19.5703C43.6132 19.3436 43.8347 19.0701 43.9397 18.7497C44.0447 18.4293 43.9977 18.1209 43.7987 17.8244L43.4933 17.3694L42.9139 17.758C42.4587 18.0633 42.1532 18.3532 41.9973 18.6277C41.8484 18.8975 41.8665 19.1704 42.0516 19.4461C42.3432 19.8805 42.751 19.9219 43.2752 19.5703Z" fill="#838D95"/>
<path d="M51.1458 7.19624C50.9834 7.63711 50.6488 7.98225 50.1421 8.23165C49.6354 8.48105 49.1615 8.53386 48.7203 8.39007C48.2755 8.23883 47.9116 7.92285 47.6285 7.44213L48.7909 6.86998C49.0558 7.29489 49.3484 7.42849 49.6688 7.27078C50.019 7.0984 50.1101 6.77591 49.9422 6.30332L51.0822 5.74217C51.2908 6.25956 51.312 6.74425 51.1458 7.19624ZM50.7563 16.2446L47.8779 10.4012L49.4762 9.61444L51.397 13.5138L51.734 8.50313L53.3324 7.71642L56.2108 13.5599L54.6124 14.3466L52.6917 10.4472L52.3546 15.4579L50.7563 16.2446Z" fill="#838D95"/>
<path d="M63.899 5.08491L62.0732 5.71359L63.7774 10.6591L62.0812 11.2431L60.377 6.29766L58.5511 6.92635L58.1332 5.71353L63.4811 3.87209L63.899 5.08491Z" fill="#838D95"/>
<path d="M72.6142 8.40998C71.6231 8.62087 70.7696 8.50112 70.0538 8.05074C69.2956 7.60088 68.8102 6.87653 68.5975 5.87769L68.5768 5.78024C68.3658 4.78952 68.5114 3.91815 69.0137 3.16615C69.5031 2.43385 70.215 1.9683 71.1492 1.76951C72.0347 1.58109 72.8122 1.68305 73.4817 2.07538C74.2283 2.51072 74.7166 3.26842 74.9465 4.34847L75.0503 4.83571L70.4563 5.81324C70.5948 6.34402 70.8292 6.72706 71.1595 6.96236C71.4963 7.18781 71.9084 7.24868 72.3958 7.14496C73.1594 6.98247 73.5391 6.59186 73.5347 5.97312L75.2041 5.61789C75.2455 6.33062 75.0419 6.92994 74.5934 7.41585C74.1513 7.89191 73.4916 8.22329 72.6142 8.40998ZM73.1013 4.1172C72.8421 3.17918 72.2778 2.80265 71.4086 2.98761C71.0105 3.07231 70.7083 3.26819 70.5019 3.57525C70.302 3.87246 70.2179 4.25535 70.2498 4.72394L73.1013 4.1172Z" fill="#838D95"/>
<path d="M82.8615 6.92965C81.8845 7.00805 81.0668 6.78631 80.4083 6.26443C79.7229 5.71971 79.3387 4.93011 79.2556 3.89561L79.2476 3.7963C79.1659 2.77835 79.4264 1.92451 80.0293 1.23477C80.6024 0.589063 81.3691 0.227677 82.3295 0.150606C83.1657 0.0835017 83.8596 0.215231 84.4111 0.545793C85.0418 0.928308 85.4337 1.55487 85.587 2.42548L83.8856 2.56202C83.7188 1.83409 83.2504 1.50102 82.4805 1.56281C82.0003 1.60135 81.633 1.80157 81.3788 2.16347C81.1328 2.52471 81.0344 3.01155 81.0836 3.62397L81.0916 3.72328C81.1434 4.36881 81.3196 4.85027 81.6201 5.16766C81.9282 5.47611 82.3347 5.61007 82.8397 5.56954C83.2206 5.53898 83.5266 5.40615 83.7577 5.17104C83.997 4.93527 84.1211 4.61296 84.13 4.20411L85.7568 4.07355C85.7716 4.88031 85.5279 5.52874 85.0256 6.01883C84.4936 6.55296 83.7722 6.85656 82.8615 6.92965Z" fill="#838D95"/>
<path d="M90.5613 0L92.341 0.0813659L92.2465 2.14656L93.4289 2.20061C94.2088 2.23627 94.8139 2.45925 95.2441 2.86955C95.6743 3.27985 95.8731 3.84164 95.8405 4.55492L95.8388 4.59224C95.8061 5.30552 95.5574 5.83439 95.0927 6.17884C94.6362 6.52367 93.9973 6.6773 93.1759 6.63975L90.2635 6.50661L90.5613 0ZM92.8849 5.36729C93.615 5.40067 93.9941 5.11048 94.0222 4.49673L94.0239 4.45941C94.0535 3.81248 93.7033 3.47232 92.9731 3.43894L92.189 3.40309L92.1008 5.33144L92.8849 5.36729Z" fill="#838D95"/>
<path d="M111.956 4.37908L109.738 3.80019L108.416 8.86118L106.693 8.41128L108.339 2.10914L114.004 3.58783L112.358 9.88998L110.634 9.44007L111.956 4.37908Z" fill="#838D95"/>
<path d="M120.042 11.3523C120.511 11.5443 120.938 11.5309 121.324 11.3121C121.717 11.0964 122.032 10.7005 122.268 10.1243L122.301 10.0436C122.538 9.46737 122.591 8.96441 122.462 8.53472C122.344 8.10048 122.05 7.78737 121.582 7.59537C121.12 7.40651 120.693 7.41992 120.299 7.63558C119.909 7.84356 119.596 8.23566 119.36 8.81187L119.322 8.90407C119.082 9.48796 119.024 9.99319 119.145 10.4197C119.266 10.8463 119.565 11.1571 120.042 11.3523ZM119.511 12.6152C118.588 12.2375 117.95 11.6486 117.596 10.8486C117.218 10.0391 117.22 9.16951 117.601 8.23988L117.639 8.14769C118.02 7.21806 118.634 6.58563 119.48 6.25039C120.305 5.92422 121.179 5.94999 122.101 6.32769C123.031 6.70855 123.673 7.29901 124.027 8.09907C124.388 8.92848 124.38 9.80031 124.006 10.7146L123.968 10.8068C123.587 11.7364 122.973 12.3688 122.127 12.7041C121.313 13.0257 120.441 12.9961 119.511 12.6152Z" fill="#838D95"/>
<path d="M130.008 14.2832C129.588 14.8745 129.21 15.2843 128.876 15.5127L130.804 16.6321L132.794 13.2073L131.286 12.3317C130.758 13.2065 130.332 13.857 130.008 14.2832ZM126.78 17.6083L125.433 16.8266L126.872 14.3495L127.195 14.5371C127.421 14.5624 127.649 14.4836 127.88 14.3009C128.115 14.111 128.391 13.8008 128.708 13.3705C129.22 12.6882 129.843 11.7152 130.577 10.4515L134.962 12.9968L132.334 17.5201L133.132 17.9829L131.693 20.46L130.346 19.6783L131.119 18.298L127.596 16.253L126.78 17.6083Z" fill="#838D95"/>
<path d="M139.572 20.5477C139.075 21.0759 138.645 21.4303 138.282 21.6108L140.039 22.9834L142.479 19.8629L141.105 18.7893C140.462 19.5838 139.952 20.1699 139.572 20.5477ZM135.919 23.4L134.692 22.4415L136.456 20.1845L136.751 20.4145C136.971 20.4704 137.208 20.4236 137.461 20.2742C137.72 20.1182 138.036 19.8487 138.41 19.4658C139.01 18.8599 139.76 17.9812 140.66 16.8298L144.655 19.9509L141.433 24.0724L142.16 24.6398L140.395 26.8968L139.168 25.9383L140.123 24.6767L136.913 22.1691L135.919 23.4Z" fill="#838D95"/>
<path d="M146.73 30.9404C146.022 30.2161 145.666 29.4312 145.664 28.5857C145.639 27.7047 145.992 26.9073 146.722 26.1935L146.794 26.1238C147.518 25.4158 148.333 25.0727 149.237 25.0948C150.118 25.1165 150.892 25.4688 151.56 26.1516C152.192 26.7987 152.522 27.5099 152.548 28.2852C152.58 29.1487 152.2 29.9663 151.41 30.7382L151.054 31.0865L147.771 27.729C147.396 28.1298 147.198 28.5327 147.176 28.9375C147.165 29.3425 147.334 29.7232 147.682 30.0794C148.228 30.6375 148.761 30.7492 149.282 30.4146L150.475 31.6347C149.895 32.0508 149.279 32.1994 148.629 32.0805C147.99 31.9617 147.357 31.5817 146.73 30.9404ZM150.619 29.0559C151.273 28.3353 151.29 27.6574 150.669 27.0221C150.384 26.7312 150.057 26.5807 149.687 26.5706C149.329 26.5607 148.96 26.6945 148.581 26.972L150.619 29.0559Z" fill="#838D95"/>
<path d="M155.151 36.3664C154.323 36.8536 153.639 37.1183 153.099 37.1603C152.559 37.2023 152.1 36.9711 151.72 36.4666C151.586 36.2874 151.504 36.1513 151.476 36.0583L151.426 35.9089L152.571 35.0486C152.57 35.0602 152.575 35.0818 152.589 35.1133C152.615 35.1764 152.651 35.2378 152.696 35.2975C152.836 35.4834 153.05 35.5405 153.339 35.4688C153.635 35.3922 154.023 35.2042 154.505 34.9049C154.616 34.8317 154.76 34.7336 154.938 34.6105C155.121 34.4941 155.337 34.347 155.588 34.1691C155.85 33.9928 156.057 33.8532 156.208 33.7501C156.696 33.4042 157.08 33.1266 157.358 32.9171L160.375 36.9295L155.165 40.8423L154.095 39.4185L158.278 36.2764L157.268 34.9322C156.362 35.5923 155.656 36.0703 155.151 36.3664Z" fill="#838D95"/>
<path d="M161.341 44.856L158.662 46.3705L157.779 44.8096L163.45 41.6027L164.334 43.1637L161.904 44.5372L165.37 44.9956L166.315 46.665L162.551 46.06L160.735 50.0344L159.729 48.2567L161.341 44.856Z" fill="#838D95"/>
<path d="M162.668 54.0269L168.716 51.6028L169.379 53.2558L165.343 54.8734L170.316 55.5908L170.979 57.2437L164.931 59.6678L164.268 58.0148L168.304 56.3972L163.331 55.6799L162.668 54.0269Z" fill="#838D95"/>
<path d="M171.108 73.162C170.724 72.9108 170.489 72.5442 170.402 72.0622C170.314 71.5802 170.406 71.1543 170.677 70.7847C170.938 70.4083 171.297 70.1787 171.755 70.0958C172.204 70.0144 172.625 70.1026 173.018 70.3605C173.395 70.6214 173.626 70.9887 173.712 71.4626C173.798 71.9364 173.71 72.3615 173.449 72.7378C173.178 73.1075 172.814 73.3338 172.357 73.4167C171.891 73.5011 171.474 73.4162 171.108 73.162Z" fill="#838D95"/>
</svg>
