<svg width="38" height="35" viewBox="0 0 38 35" fill="none" xmlns="http://www.w3.org/2000/svg">
<rect width="35" height="35" rx="17.5" fill="#C2C2C2"/>
<path d="M17.1301 7C14.9879 6.99989 12.9322 7.85253 11.4098 9.37259C9.88743 10.8927 9.02142 12.9573 9 15.1178C9 20.7346 16.1647 26.9869 16.4696 27.2534C16.6536 27.4122 16.8879 27.4995 17.1301 27.4995C17.3724 27.4995 17.6066 27.4122 17.7907 27.2534C18.1464 26.9869 25.2603 20.7346 25.2603 15.1178C25.2388 12.9573 24.3728 10.8927 22.8504 9.37259C21.3281 7.85253 19.2724 6.99989 17.1301 7ZM17.1301 25.0907C15.433 23.461 11.0325 18.9409 11.0325 15.1178C11.0325 13.4867 11.675 11.9225 12.8185 10.7692C13.962 9.61587 15.5129 8.96794 17.1301 8.96794C18.7473 8.96794 20.2983 9.61587 21.4418 10.7692C22.5853 11.9225 23.2277 13.4867 23.2277 15.1178C23.2277 18.9102 18.8273 23.461 17.1301 25.0907Z" fill="white"/>
<path d="M17.1302 11.0999C16.4267 11.0999 15.739 11.3103 15.154 11.7044C14.5691 12.0986 14.1132 12.6589 13.844 13.3144C13.5748 13.9699 13.5043 14.6912 13.6416 15.3871C13.7788 16.083 14.1176 16.7222 14.615 17.2239C15.1125 17.7256 15.7463 18.0673 16.4363 18.2057C17.1262 18.3441 17.8414 18.2731 18.4914 18.0016C19.1413 17.7301 19.6968 17.2702 20.0877 16.6803C20.4785 16.0904 20.6871 15.3968 20.6871 14.6872C20.6871 13.7358 20.3124 12.8233 19.6453 12.1506C18.9782 11.4778 18.0735 11.0999 17.1302 11.0999ZM17.1302 16.2247C16.8287 16.2247 16.534 16.1345 16.2833 15.9656C16.0326 15.7967 15.8372 15.5565 15.7218 15.2756C15.6064 14.9947 15.5762 14.6855 15.6351 14.3873C15.6939 14.0891 15.8391 13.8151 16.0523 13.6001C16.2655 13.3851 16.5371 13.2387 16.8328 13.1793C17.1285 13.12 17.435 13.1505 17.7135 13.2668C17.9921 13.3832 18.2302 13.5803 18.3977 13.8331C18.5652 14.0859 18.6546 14.3832 18.6546 14.6872C18.6546 15.095 18.494 15.4861 18.2081 15.7744C17.9222 16.0627 17.5345 16.2247 17.1302 16.2247Z" fill="white"/>
</svg>
