<svg width="64" height="64" viewBox="0 0 64 64" fill="none" xmlns="http://www.w3.org/2000/svg">
<path d="M11.1 47.3C5.40001 50 1.70001 54.9 2.00001 62C9.10001 62.4 14 58.6001 16.7 52.9001" stroke="#4F75D2" stroke-linecap="round" stroke-linejoin="round"/>
<path d="M62 2C62 2 48.6 1.3 39.4 10.5C30.2 19.7 8.29999 44.4 8.29999 44.4L19.6 55.8C19.6 55.8 44.3 33.8 53.5 24.6C62.7 15.4 62 2 62 2Z" stroke="#4F75D2" stroke-linecap="round" stroke-linejoin="round"/>
<path d="M44 24C46.2091 24 48 22.2091 48 20C48 17.7909 46.2091 16 44 16C41.7909 16 40 17.7909 40 20C40 22.2091 41.7909 24 44 24Z" stroke="#4F75D2" stroke-linecap="round" stroke-linejoin="round"/>
<path d="M37 40.2V52.5L29.3 60.1L27 49.2M13.6 38.5L25.6 50.4L13.6 38.5ZM24.8 26H12.5L4.79999 33.7L15.8 36L24.8 26Z" stroke="#4F75D2" stroke-linecap="round" stroke-linejoin="round"/>
</svg>
