<svg width="70" height="70" viewBox="0 0 70 70" fill="none" xmlns="http://www.w3.org/2000/svg">
<path d="M19.2593 41.0444C20.8637 44.0784 23.589 46.5887 27.0247 48.1973C30.4602 49.8055 34.4201 50.4247 38.3074 49.9615C42.1948 49.4984 45.7992 47.9778 48.5773 45.6292L53.8889 41.5926" stroke="#4F75D2" stroke-linecap="round" stroke-linejoin="round"/>
<path d="M53.8889 50.1111V41.0444H44.4444" stroke="#4F75D2" stroke-linecap="round" stroke-linejoin="round"/>
<path d="M50.7409 28.9556C49.1364 25.9215 46.4112 23.4112 42.9753 21.8029C39.5398 20.1945 35.5799 19.5753 31.6926 20.0384C27.8052 20.5016 24.2008 22.0221 21.4226 24.3707L16.1111 28.4074" stroke="#4F75D2" stroke-linecap="round" stroke-linejoin="round"/>
<path d="M16.1111 19.8889V28.9556H25.5556" stroke="#4F75D2" stroke-linecap="round" stroke-linejoin="round"/>
<path d="M35 69C53.7778 69 69 53.7778 69 35C69 16.2223 53.7778 1 35 1C16.2223 1 1 16.2223 1 35C1 53.7778 16.2223 69 35 69Z" stroke="#4F75D2" stroke-linecap="round" stroke-linejoin="round"/>
</svg>
