<svg width="64" height="64" viewBox="0 0 64 64" fill="none" xmlns="http://www.w3.org/2000/svg">
<path d="M35.9 41C32.6 40 32 38.1 32 37V35C33.9862 33.1057 35.3764 30.6729 36 28C38.5 28 40 25 40 22C40 21.2 40 18 38 18C43 3.50001 28.4 -1.99999 18 5.00001C13.6 5.00001 12.4 11.6 14 18C12 18 12 21.2 12 22C12 25 13.5 28 16 28C16.629 30.6708 18.0184 33.1021 20 35V37C20 38.6 19.5 40.6 11.4 42.2C3.3 43.8 2 51 2 51H34.3" stroke="#4F75D2" stroke-miterlimit="10" stroke-linecap="round" stroke-linejoin="round"/>
<path d="M54 44L47 52L43 48" stroke="#4F75D2" stroke-miterlimit="10" stroke-linecap="round" stroke-linejoin="round"/>
<path d="M48 62C55.732 62 62 55.732 62 48C62 40.268 55.732 34 48 34C40.268 34 34 40.268 34 48C34 55.732 40.268 62 48 62Z" stroke="#4F75D2" stroke-miterlimit="10" stroke-linecap="round" stroke-linejoin="round"/>
</svg>
