<svg width="80" height="80" viewBox="0 0 80 80" fill="none" xmlns="http://www.w3.org/2000/svg">
<path d="M25.2033 57.5H6.24231C5.24978 57.5 4.29791 57.1049 3.5961 56.4016C2.89428 55.6984 2.5 54.7446 2.5 53.75V8.75C2.5 7.75544 2.89428 6.80161 3.5961 6.09835C4.29791 5.39509 5.24978 5 6.24231 5H73.6038M14.9743 17.5H41.5447M14.9743 32.5H24.9538" stroke="#4F75D2" stroke-miterlimit="10" stroke-linecap="round" stroke-linejoin="round"/>
<path d="M77.5 51.2499C77.5386 52.5413 77.2058 53.8167 76.5411 54.9246C75.8763 56.0325 74.9076 56.9263 73.75 57.4999L30 74.4999C26.25 76.1249 25 73.2499 25 71.2499V28.7499C24.9289 27.4527 25.2481 26.1639 25.9165 25.0499C26.585 23.9358 27.5719 23.0476 28.75 22.4999L71.25 5.99993C74 4.99993 77.5 6.62493 77.5 8.74993V51.2499Z" stroke="#4F75D2" stroke-miterlimit="10" stroke-linecap="round" stroke-linejoin="round"/>
<path d="M40 50.25C42.7614 50.25 45 48.0114 45 45.25C45 42.4886 42.7614 40.25 40 40.25C37.2386 40.25 35 42.4886 35 45.25C35 48.0114 37.2386 50.25 40 50.25Z" stroke="#4F75D2" stroke-miterlimit="10" stroke-linecap="round" stroke-linejoin="round"/>
</svg>
