<svg width="80" height="80" viewBox="0 0 80 80" fill="none" xmlns="http://www.w3.org/2000/svg">
<path d="M59.375 62.5C60.625 63.375 62.875 64.625 62.375 67.375C61.4577 70.247 59.6606 72.7579 57.2379 74.5525C54.8152 76.347 51.8897 77.3344 48.875 77.375C39.875 77.375 28.875 70.25 19.25 60.625C9.625 51 2.5 40 2.5 31C2.54058 27.9854 3.52799 25.0598 5.32256 22.6371C7.11713 20.2144 9.62801 18.4173 12.5 17.5C15.25 17.125 16.5 19.25 17.375 20.5L24.125 30.875C24.7728 31.917 25.0039 33.1649 24.7722 34.3697C24.5405 35.5745 23.8631 36.6477 22.875 37.375C20 39.75 15.125 42.625 26.125 53.625C37.125 64.625 40 59.75 42.375 56.875C43.1023 55.887 44.1755 55.2095 45.3803 54.9778C46.5852 54.7461 47.8331 54.9772 48.875 55.625L59.375 62.5Z" stroke="#4F75D2" stroke-miterlimit="10" stroke-linecap="round" stroke-linejoin="round"/>
<path d="M74.25 2.5H38.25C37.388 2.5 36.5614 2.84241 35.9519 3.4519C35.3424 4.0614 35 4.88805 35 5.75V29.25C35 29.6768 35.0841 30.0994 35.2474 30.4937C35.4107 30.888 35.6501 31.2463 35.9519 31.5481C36.2537 31.8499 36.612 32.0893 37.0063 32.2526C37.4006 32.4159 37.8232 32.5 38.25 32.5H47.5V41.25L56.25 32.5H74.25C74.6768 32.5 75.0994 32.4159 75.4937 32.2526C75.888 32.0893 76.2463 31.8499 76.5481 31.5481C76.8499 31.2463 77.0893 30.888 77.2526 30.4937C77.4159 30.0994 77.5 29.6768 77.5 29.25V5.75C77.5 4.88805 77.1576 4.0614 76.5481 3.4519C75.9386 2.84241 75.112 2.5 74.25 2.5V2.5Z" stroke="#4F75D2" stroke-miterlimit="10" stroke-linecap="round" stroke-linejoin="round"/>
<path d="M56.25 18.75C56.9404 18.75 57.5 18.1904 57.5 17.5C57.5 16.8096 56.9404 16.25 56.25 16.25C55.5596 16.25 55 16.8096 55 17.5C55 18.1904 55.5596 18.75 56.25 18.75Z" stroke="#4F75D2" stroke-miterlimit="10" stroke-linecap="round" stroke-linejoin="round"/>
<path d="M46.25 18.75C46.9404 18.75 47.5 18.1904 47.5 17.5C47.5 16.8096 46.9404 16.25 46.25 16.25C45.5596 16.25 45 16.8096 45 17.5C45 18.1904 45.5596 18.75 46.25 18.75Z" stroke="#4F75D2" stroke-miterlimit="10" stroke-linecap="round" stroke-linejoin="round"/>
<path d="M66.25 18.75C66.9404 18.75 67.5 18.1904 67.5 17.5C67.5 16.8096 66.9404 16.25 66.25 16.25C65.5596 16.25 65 16.8096 65 17.5C65 18.1904 65.5596 18.75 66.25 18.75Z" stroke="#4F75D2" stroke-miterlimit="10" stroke-linecap="round" stroke-linejoin="round"/>
</svg>
