<svg width="80" height="80" viewBox="0 0 80 80" fill="none" xmlns="http://www.w3.org/2000/svg">
<path d="M22.5 29.9999C22.0675 30.0036 18.75 30.2674 18.75 36.2499C18.75 37.4336 19.2412 42.5024 23.0475 42.5024H23.0512C24.3207 47.7535 27.5192 52.3349 32.0112 55.3361M47 55.3361C51.4939 52.3346 54.6935 47.7516 55.9625 42.4986C59.7413 42.4524 61.25 38.7499 61.25 36.2499C61.25 35.0749 61.2675 30.0661 57.5 29.9999V25.2336" stroke="#4F75D2" stroke-miterlimit="10" stroke-linecap="round" stroke-linejoin="round"/>
<path d="M30 53.8877V55.0002C30 57.5002 30.75 61.1777 17.0125 63.7502C2.5 66.4677 2.5 77.5002 2.5 77.5002H77.5C77.5 77.5002 77.5 66.6752 61.9725 63.7502C48.5787 61.2264 48.75 57.5002 48.75 55.0002V54.1027" stroke="#4F75D2" stroke-miterlimit="10" stroke-linecap="round" stroke-linejoin="round"/>
<path d="M25 61.5476C27.5387 64.0851 32.1337 70.0001 40 70.0001C47.8663 70.0001 52.7175 64.2014 55 61.9201" stroke="#4F75D2" stroke-miterlimit="10" stroke-linecap="round" stroke-linejoin="round"/>
<path d="M20 25.6738C20 25.6738 28.75 17.4988 40 17.4988C51.25 17.4988 60 25.5025 60 25.5025" stroke="#4F75D2" stroke-miterlimit="10" stroke-linecap="round" stroke-linejoin="round"/>
<path d="M20.9275 24.8801L25 30.0001C25 30.0001 32.6325 25.0001 40 25.0001C47.3675 25.0001 55 30.0001 55 30.0001L58.125 24.0076" stroke="#4F75D2" stroke-miterlimit="10" stroke-linecap="round" stroke-linejoin="round"/>
<path d="M58.75 30.2424C60.275 28.7174 60 25.5024 60 25.5024V17.3811C60.0038 15.5602 59.4761 13.7776 58.4816 12.2522C57.4871 10.7268 56.069 9.5248 54.4013 8.79364L41.4438 3.12739C40.9916 2.92969 40.5035 2.82764 40.01 2.82764C39.5165 2.82764 39.0284 2.92969 38.5763 3.12739L25.6175 8.79364C23.9477 9.52397 22.527 10.7252 21.5293 12.2504C20.5316 13.7756 20.0001 15.5586 20 17.3811V25.6736C20 25.6736 19.92 29.0074 21.25 30.3361" stroke="#4F75D2" stroke-miterlimit="10" stroke-linecap="round" stroke-linejoin="round"/>
</svg>
