<svg width="35" height="35" viewBox="0 0 35 35" fill="none" xmlns="http://www.w3.org/2000/svg">
<rect width="35" height="35" rx="17.5" fill="#F5821F"/>
<path d="M23.45 11H11.55C10.8737 11 10.2251 11.2766 9.74688 11.7688C9.26866 12.2611 9 12.9288 9 13.625V22.375C9 23.0712 9.26866 23.7389 9.74688 24.2312C10.2251 24.7234 10.8737 25 11.55 25H23.45C24.1263 25 24.7749 24.7234 25.2531 24.2312C25.7313 23.7389 26 23.0712 26 22.375V13.625C26 12.9288 25.7313 12.2611 25.2531 11.7688C24.7749 11.2766 24.1263 11 23.45 11ZM22.8805 12.75L17.5 16.9062L12.1195 12.75H22.8805ZM23.45 23.25H11.55C11.3246 23.25 11.1084 23.1578 10.949 22.9937C10.7896 22.8296 10.7 22.6071 10.7 22.375V13.8438L16.99 18.7C17.1371 18.8136 17.3161 18.875 17.5 18.875C17.6839 18.875 17.8629 18.8136 18.01 18.7L24.3 13.8438V22.375C24.3 22.6071 24.2104 22.8296 24.051 22.9937C23.8916 23.1578 23.6754 23.25 23.45 23.25Z" fill="white"/>
</svg>
