<svg width="143" height="145" viewBox="0 0 143 145" fill="none" xmlns="http://www.w3.org/2000/svg">
<rect width="143" height="145" fill="#C2C2C2"/>
<path d="M72.08 69.49C74.9201 69.49 77.6965 68.6478 80.058 67.0699C82.4195 65.492 84.26 63.2493 85.3469 60.6254C86.4338 58.0014 86.7182 55.1141 86.1641 52.3285C85.61 49.543 84.2423 46.9843 82.2341 44.976C80.2258 42.9677 77.6671 41.6 74.8815 41.0459C72.0959 40.4919 69.2086 40.7762 66.5847 41.8631C63.9607 42.95 61.718 44.7905 60.1401 47.152C58.5622 49.5135 57.72 52.2899 57.72 55.13C57.72 58.9385 59.2329 62.5911 61.9259 65.2841C64.619 67.9771 68.2715 69.49 72.08 69.49Z" fill="white"/>
<path d="M93.62 105.39C94.5721 105.39 95.4853 105.012 96.1585 104.339C96.8318 103.665 97.21 102.752 97.21 101.8C97.21 95.1351 94.5624 88.7432 89.8496 84.0304C85.1368 79.3176 78.7449 76.67 72.08 76.67C65.4151 76.67 59.0232 79.3176 54.3104 84.0304C49.5976 88.7432 46.95 95.1351 46.95 101.8C46.95 102.752 47.3282 103.665 48.0015 104.339C48.6747 105.012 49.5879 105.39 50.54 105.39H93.62Z" fill="white"/>
</svg>
