<svg width="241" height="67" viewBox="0 0 241 67" fill="none" xmlns="http://www.w3.org/2000/svg">
<path d="M241 53.4764L229.914 50.2473L232.66 61.4629L241 53.4764ZM0.105289 1.44664C0.682146 2.6022 1.32281 3.78419 2.02811 4.98793L3.75372 3.97686C3.06999 2.80993 2.45075 1.66719 1.89471 0.553355L0.105289 1.44664ZM3.61231 7.5582C4.9851 9.68132 6.55238 11.8605 8.31895 14.0718L9.88154 12.8235C8.15469 10.6619 6.62672 8.53678 5.29181 6.47225L3.61231 7.5582ZM10.2352 16.3903C11.9049 18.3446 13.7291 20.3175 15.7115 22.293L17.1232 20.8764C15.1779 18.9377 13.39 17.0039 11.7558 15.0911L10.2352 16.3903ZM17.8527 24.369C19.734 26.1442 21.744 27.9169 23.8853 29.6755L25.1546 28.13C23.0484 26.4001 21.0728 24.6576 19.2252 22.9144L17.8527 24.369ZM26.2149 31.5422C28.2635 33.1438 30.4232 34.73 32.6959 36.2919L33.8287 34.6437C31.5894 33.1048 29.4628 31.5427 27.4467 29.9666L26.2149 31.5422ZM35.164 37.9489C37.3387 39.3752 39.6106 40.778 41.9812 42.1501L42.9831 40.4191C40.6445 39.0655 38.4043 37.6823 36.2608 36.2765L35.164 37.9489ZM44.6007 43.6312C46.8768 44.8882 49.2391 46.1164 51.6888 47.31L52.5648 45.512C50.1456 44.3334 47.8136 43.1209 45.5676 41.8804L44.6007 43.6312ZM54.4018 48.6007C56.7692 49.7002 59.2145 50.7672 61.7388 51.7968L62.4941 49.9449C59.999 48.9272 57.5828 47.8729 55.2443 46.7868L54.4018 48.6007ZM64.5138 52.9009C66.9462 53.8447 69.449 54.7538 72.0231 55.6241L72.6637 53.7294C70.1172 52.8685 67.6421 51.9695 65.2374 51.0363L64.5138 52.9009ZM74.8672 56.5603C77.3541 57.3571 79.9052 58.1178 82.5213 58.8389L83.0528 56.9108C80.4629 56.1969 77.938 55.444 75.4774 54.6557L74.8672 56.5603ZM85.448 59.622C87.976 60.2781 90.5628 60.8975 93.2089 61.4772L93.637 59.5236C91.0156 58.9493 88.4536 58.3358 85.9504 57.6861L85.448 59.622ZM96.1116 62.0923C98.6765 62.6174 101.296 63.1055 103.97 63.554L104.3 61.5816C101.65 61.137 99.0542 60.6532 96.5128 60.1329L96.1116 62.0923ZM106.905 64.027C109.492 64.4268 112.128 64.7898 114.814 65.1138L115.054 63.1282C112.389 62.8068 109.775 62.4469 107.211 62.0505L106.905 64.027ZM117.787 65.4541C120.387 65.7359 123.033 65.9815 125.725 66.1889L125.879 64.1948C123.207 63.9889 120.582 63.7453 118.002 63.4657L117.787 65.4541ZM128.722 66.4026C131.33 66.5738 133.98 66.7095 136.673 66.808L136.746 64.8093C134.072 64.7115 131.441 64.5768 128.853 64.4069L128.722 66.4026ZM139.683 66.9021C142.294 66.9698 144.945 67.0029 147.635 66.9998L147.633 64.9998C144.96 65.0029 142.328 64.97 139.735 64.9027L139.683 66.9021ZM150.648 66.9813C153.26 66.9524 155.908 66.8896 158.593 66.7917L158.52 64.7931C155.852 64.8903 153.22 64.9527 150.626 64.9815L150.648 66.9813ZM161.601 66.668C164.211 66.5486 166.856 66.3962 169.536 66.2097L169.397 64.2145C166.733 64.3999 164.104 64.5514 161.51 64.6701L161.601 66.668ZM172.53 65.9881C175.139 65.7837 177.78 65.5471 180.454 65.2775L180.254 63.2875C177.594 63.5558 174.968 63.791 172.374 63.9942L172.53 65.9881ZM183.429 64.9652C186.037 64.6807 188.676 64.3648 191.346 64.0167L191.087 62.0335C188.431 62.3798 185.807 62.694 183.212 62.977L183.429 64.9652ZM194.295 63.6207C196.904 63.2603 199.542 62.8693 202.209 62.4468L201.896 60.4714C199.242 60.8919 196.617 61.281 194.021 61.6396L194.295 63.6207ZM205.128 61.9737C207.733 61.5421 210.365 61.0807 213.024 60.5886L212.661 58.622C210.013 59.1118 207.393 59.5711 204.801 60.0007L205.128 61.9737ZM215.931 60.0407C218.504 59.5468 221.103 59.0244 223.727 58.4728L223.316 56.5156C220.703 57.0648 218.116 57.5849 215.554 58.0766L215.931 60.0407ZM226.691 57.84C229.236 57.2878 231.805 56.7083 234.398 56.101L233.942 54.1537C231.359 54.7586 228.801 55.3356 226.267 55.8854L226.691 57.84Z" fill="#D0D4D9"/>
</svg>
