<svg width="241" height="67" viewBox="0 0 241 67" fill="none" xmlns="http://www.w3.org/2000/svg">
<g clip-path="url(#clip0_4_2)">
<path d="M239.513 63.8335L228.143 62.6432L234.016 54.5419L239.513 63.8335ZM-2.21844 23.3477C-1.3371 22.6136 -0.388022 21.88 0.628205 21.151L1.95381 22.5565C0.968664 23.2632 0.0512399 23.9725 -0.798289 24.6801L-2.21844 23.3477ZM2.87162 19.6212C4.7851 18.3795 6.89787 17.1591 9.20741 15.9811L10.3102 17.522C8.05254 18.6736 5.99259 19.8638 4.13191 21.0713L2.87162 19.6212ZM11.6891 14.7678C13.8322 13.7638 16.126 12.7976 18.5692 11.8835L19.4808 13.5085C17.0832 14.4056 14.835 15.3527 12.7375 16.3354L11.6891 14.7678ZM21.1913 10.9427C23.4807 10.1554 25.8904 9.41423 28.4194 8.72932L29.1593 10.4095C26.6717 11.0833 24.3032 11.8119 22.0548 12.5849L21.1913 10.9427ZM31.1572 8.0217C33.553 7.43162 36.0487 6.89197 38.6435 6.41058L39.2249 8.1268C36.6682 8.60108 34.2107 9.13263 31.8529 9.71327L31.1572 8.0217ZM41.45 5.91938C43.9129 5.51376 46.4603 5.16034 49.0915 4.86544L49.5255 6.60362C46.9298 6.89455 44.418 7.24302 41.9904 7.64279L41.45 5.91938ZM51.9886 4.56785C54.4972 4.3334 57.0783 4.15165 59.7315 4.02771L60.0275 5.77681C57.4074 5.8991 54.8593 6.07855 52.3839 6.31001L51.9886 4.56785ZM62.6607 3.91558C65.2089 3.83933 67.8207 3.81593 70.4959 3.84972L70.6627 5.60097C68.0184 5.56758 65.4376 5.5907 62.9205 5.66604L62.6607 3.91558ZM73.4287 3.90922C75.9923 3.98072 78.6119 4.10428 81.2872 4.28351L81.3335 6.03002C78.6869 5.85265 76.0963 5.73043 73.5619 5.65987L73.4287 3.90922ZM84.2356 4.50201C86.8073 4.71065 89.4288 4.97036 92.0998 5.28424L92.0337 7.02034C89.3895 6.70962 86.7949 6.45259 84.2504 6.2461L84.2356 4.50201ZM95.0809 5.65441C97.65 5.99053 100.264 6.37636 102.921 6.81448L102.751 8.53576C100.118 8.10173 97.5291 7.71964 94.9852 7.38684L95.0809 5.65441ZM105.831 7.31187C108.396 7.76622 111.002 8.26907 113.647 8.8225L113.379 10.5254C110.757 9.977 108.175 9.47879 105.633 9.02861L105.831 7.31187ZM116.545 9.44548C119.094 10.0084 121.679 10.6177 124.299 11.2756L123.942 12.9583C121.343 12.3055 118.78 11.7012 116.253 11.1434L116.545 9.44548ZM127.194 12.0186C129.721 12.6811 132.281 13.3885 134.872 14.1424L134.432 15.8025C131.859 15.0542 129.32 14.3524 126.813 13.695L127.194 12.0186ZM137.752 14.9956C140.254 15.75 142.785 16.5474 145.346 17.3894L144.828 19.0256C142.286 18.1894 139.773 17.3978 137.29 16.6492L137.752 14.9956ZM148.203 18.3435C150.678 19.1823 153.18 20.0627 155.708 20.9857L155.119 22.5972C152.607 21.6801 150.123 20.806 147.666 19.973L148.203 18.3435ZM158.535 22.0316C160.982 22.9486 163.453 23.9053 165.948 24.9029L165.293 26.489C162.814 25.4978 160.358 24.5469 157.927 23.6361L158.535 22.0316ZM168.74 26.0319C171.158 27.0212 173.6 28.0491 176.065 29.1164L175.349 30.6772C172.899 29.6162 170.472 28.5945 168.068 27.6113L168.74 26.0319ZM178.815 30.3195C181.208 31.377 183.621 32.4714 186.056 33.6037L185.284 35.1394C182.862 34.0129 180.462 32.9248 178.083 31.8734L178.815 30.3195ZM188.761 34.8734C191.129 35.9951 193.517 37.1527 195.925 38.3469L195.1 39.857C192.705 38.669 190.33 37.5179 187.974 36.4018L188.761 34.8734ZM198.582 39.6752C200.929 40.8584 203.294 42.0763 205.677 43.3294L204.803 44.8147C202.432 43.5676 200.078 42.3557 197.743 41.1784L198.582 39.6752ZM208.282 44.7096C210.605 45.9488 212.944 47.2214 215.299 48.5279L214.381 49.9889C212.035 48.688 209.707 47.4213 207.396 46.1881L208.282 44.7096ZM217.871 49.9642C220.145 51.2428 222.435 52.5532 224.74 53.8957L223.78 55.3327C221.484 53.9959 219.205 52.6915 216.941 51.4185L217.871 49.9642ZM227.341 55.4199C229.572 56.7359 231.817 58.0821 234.076 59.4588L233.076 60.8725C230.825 59.5011 228.59 58.1607 226.369 56.8505L227.341 55.4199Z" fill="#D0D4D9"/>
</g>
<defs>
<clipPath id="clip0_4_2">
<rect width="241" height="67" fill="white"/>
</clipPath>
</defs>
</svg>
