<svg width="36" height="36" viewBox="0 0 36 36" fill="none" xmlns="http://www.w3.org/2000/svg">
<path d="M0.5 18C0.5 8.33502 8.33502 0.5 18 0.5V0.5C27.665 0.5 35.5 8.33502 35.5 18V18C35.5 27.665 27.665 35.5 18 35.5V35.5C8.33502 35.5 0.5 27.665 0.5 18V18Z" fill="#4F75D2"/>
<path d="M22.775 25.4166C19.5429 25.4124 16.4443 24.1266 14.1588 21.8411C11.8734 19.5557 10.5875 16.4571 10.5833 13.2249C10.5833 12.2591 10.967 11.3328 11.65 10.6499C12.3329 9.96696 13.2592 9.58328 14.225 9.58328C14.4295 9.58172 14.6337 9.60029 14.8346 9.6387C15.0288 9.66744 15.2197 9.71516 15.4046 9.7812C15.5346 9.82682 15.6505 9.9056 15.7407 10.0097C15.831 10.1139 15.8925 10.2398 15.9192 10.3749L17.0038 15.1249C17.033 15.2539 17.0295 15.3881 16.9935 15.5153C16.9576 15.6425 16.8903 15.7587 16.7979 15.8533C16.695 15.9641 16.6871 15.972 15.7133 16.4787C16.4931 18.1894 17.8613 19.5632 19.5688 20.3499C20.0833 19.3683 20.0913 19.3604 20.2021 19.2574C20.2967 19.1651 20.4128 19.0978 20.5401 19.0619C20.6673 19.0259 20.8015 19.0224 20.9304 19.0516L25.6804 20.1362C25.8113 20.1666 25.9323 20.2297 26.032 20.3198C26.1317 20.4098 26.2069 20.5237 26.2504 20.6508C26.3172 20.8387 26.3676 21.0321 26.4008 21.2287C26.4327 21.4277 26.4486 21.6289 26.4483 21.8304C26.4337 22.7921 26.0393 23.7089 25.3511 24.3808C24.6629 25.0527 23.7368 25.4251 22.775 25.4166ZM14.225 11.1666C13.6797 11.1687 13.1574 11.3862 12.7719 11.7718C12.3863 12.1574 12.1688 12.6797 12.1667 13.2249C12.1688 16.0378 13.2871 18.7349 15.2761 20.7239C17.2651 22.7129 19.9621 23.8312 22.775 23.8333C23.3203 23.8312 23.8426 23.6137 24.2282 23.2281C24.6137 22.8425 24.8313 22.3202 24.8333 21.7749C24.8333 21.6879 24.8333 21.6008 24.8333 21.5137L21.16 20.6666L20.9304 21.102C20.5742 21.7908 20.3129 22.2895 19.6479 22.0204C18.336 21.5508 17.1452 20.7949 16.162 19.8076C15.1788 18.8202 14.4279 17.6263 13.9638 16.3124C13.6788 15.6949 14.2171 15.4099 14.8979 15.0537L15.3333 14.8399L14.4863 11.1666H14.225Z" fill="white"/>
</svg>
